<?xml version="1.0" standalone="no"?>
<!DOCTYPE svg PUBLIC "-//W3C//DTD SVG 1.1//EN" "http://www.w3.org/Graphics/SVG/1.1/DTD/svg11.dtd" >
<svg xmlns="http://www.w3.org/2000/svg" xmlns:xlink="http://www.w3.org/1999/xlink" version="1.1">
<metadata>
Created by FontForge 20161003 at Mon Jun 12 13:10:34 2017
 By www-data
</metadata>
<defs>
<font id="HiraginoSans" horiz-adv-x="1000" vert-adv-y="1000" >
  <font-face 
    font-family="HiraginoSans"
    font-weight="200"
    font-stretch="normal"
    units-per-em="1000"
    panose-1="2 0 3 3 0 0 0 0 0 0"
    ascent="800"
    descent="-200"
    x-height="543"
    cap-height="763"
    bbox="23 -120 977 879"
    underline-thickness="50"
    underline-position="-200"
    unicode-range="U+0391-FF5A"
  />
<missing-glyph horiz-adv-x="364" 
d="M33 0v666h265v-666h-265zM66 33h199v600h-199v-600z" />
    <glyph glyph-name=".notdef" horiz-adv-x="364" 
d="M33 0v666h265v-666h-265zM66 33h199v600h-199v-600z" />
    <glyph glyph-name=".null" horiz-adv-x="0" vert-adv-y="0" 
 />
    <glyph glyph-name="nonmarkingreturn" horiz-adv-x="333" 
 />
    <glyph glyph-name="Alpha" unicode="&#x391;" 
d="M861 0h-103q-11 51 -31 102l-52 129h-349l-52 -129q-21 -54 -31 -102h-104q23 38 54 115l224 552q25 63 32 93h101q4 -21 34 -93l224 -552q35 -83 53 -115zM651 300l-129 330q-1 3 -2.5 6.5t-6.5 19t-13 38.5l-11 -33q-2 -7 -4.5 -14t-4 -11t-2.5 -6l-128 -330h301z" />
    <glyph glyph-name="Beta" unicode="&#x392;" 
d="M555 0h-224q-57 0 -110 -3q9 51 9 124v535q0 58 -8 106q31 -2 109 -2h213q109 0 167.5 -47.5t58.5 -136.5q0 -86 -54 -134q-27 -23 -79 -40q62 -12 97 -42q62 -53 62 -150q0 -100 -63 -155t-178 -55zM307 434h236q70 0 109 35t39 98q0 125 -149 125h-235v-258zM307 366
v-298h241q82 0 124.5 38t42.5 110q0 150 -169 150h-239z" />
    <glyph glyph-name="Gamma" unicode="&#x393;" 
d="M373 689v-572q0 -72 8 -117h-95q8 45 8 116v533q0 57 -8 114q53 -3 109 -3h266q62 0 115 7v-85q-48 7 -114 7h-289z" />
    <glyph glyph-name="uni0394" unicode="&#x394;" 
d="M581 667l214 -552q35 -91 51 -117q-60 2 -101 2h-489q-52 0 -102 -2q21 35 53 117l214 552q23 58 32 93h97q7 -31 31 -93zM274 70h453l-203 548q-11 30 -22 67q-1 -4 -4 -12.5t-8.5 -25t-10.5 -29.5z" />
    <glyph glyph-name="Epsilon" unicode="&#x395;" 
d="M770 77v-84q-45 7 -112 7h-293q-59 0 -110 -3q8 51 8 119v533q0 55 -8 114q52 -3 110 -3h285q64 0 112 7v-84q-49 7 -112 7h-308v-256h263q59 0 112 7v-84q-48 7 -112 7h-263v-294h317q59 0 111 7z" />
    <glyph glyph-name="Zeta" unicode="&#x396;" 
d="M803 77v-84q-55 7 -117 7h-375q-66 0 -114 -3v71q28 26 73 85l379 497q16 19 37 43q-30 -3 -61 -3h-274q-67 0 -116 -7v84q48 -7 116 -7h323q54 0 112 3v-69q-26 -25 -72 -85l-369 -484q-15 -19 -48 -57q34 2 77 2h312q65 0 117 7z" />
    <glyph glyph-name="Eta" unicode="&#x397;" 
d="M718 760h94q-8 -51 -8 -110v-538q0 -60 8 -112h-94q8 49 8 112v253h-452v-253q0 -64 8 -112h-94q8 45 8 112v536q0 65 -8 112h94q-8 -49 -8 -110v-214h452v212q0 67 -8 112z" />
    <glyph glyph-name="Theta" unicode="&#x398;" 
d="M706 429v-87q-37 7 -104 7h-207q-61 0 -103 -7v87q42 -7 104 -7h207q62 0 103 7zM500 775q158 0 251.5 -107t93.5 -288t-94 -288t-252 -107t-251.5 107t-93.5 288q0 180 94 287.5t252 107.5zM501 56q105 0 173 68q89 87 89 256q0 168 -88 256q-71 69 -175 69
q-120 0 -192.5 -88.5t-72.5 -235.5t73 -236t193 -89z" />
    <glyph glyph-name="Iota" unicode="&#x399;" 
d="M453 760h95q-9 -50 -9 -112v-536q0 -61 9 -112h-95q8 49 8 112v536q0 64 -8 112z" />
    <glyph glyph-name="Kappa" unicode="&#x39a;" 
d="M479 442l262 -333q62 -78 94 -109h-116q-23 41 -59 86l-236 304l-117 -115v-163q0 -65 8 -112h-93q8 43 8 112v536q0 63 -8 112h93q-8 -43 -8 -112v-277l304 306q51 51 69 83h118q-18 -17 -26 -25l-44 -44q-18 -19 -33 -34z" />
    <glyph glyph-name="Lambda" unicode="&#x39b;" 
d="M845 0h-104q-5 36 -29 102l-188 512q-18 55 -23 70q-16 -48 -24 -70l-190 -512q-18 -54 -29 -102h-103q20 35 51 116l214 551q27 68 32 93h97q8 -33 31 -93l214 -551q24 -65 51 -116z" />
    <glyph glyph-name="Mu" unicode="&#x39c;" 
d="M426 105l-201 446q-19 41 -45 124q7 -100 7 -129v-428q0 -73 8 -118h-91q8 49 8 118v523q0 70 -8 119h116q9 -47 33 -99l247 -551l246 551q26 59 34 99h115q-8 -51 -8 -119v-523q0 -70 8 -118h-91q8 45 8 118v434q0 51 7 123q-15 -62 -43 -122l-204 -449
q-28 -63 -38 -104h-71q-7 38 -37 105z" />
    <glyph glyph-name="Nu" unicode="&#x39d;" 
d="M192 760h105q11 -28 51 -90l316 -473q30 -47 65 -109q-6 120 -6 133v424q0 68 -8 115h93q-8 -48 -8 -115v-533q0 -69 8 -112h-109q-20 41 -52 90l-321 482q-24 35 -55 96q6 -71 6 -122v-427q0 -75 8 -119h-93q8 43 8 119v529q0 64 -8 112z" />
    <glyph glyph-name="Xi" unicode="&#x39e;" 
d="M792 767v-83q-49 7 -112 7h-362q-64 0 -112 -7v83q46 -7 112 -7h362q66 0 112 7zM193 -7v84q53 -7 112 -7h389q57 0 112 7v-84q-55 7 -112 7h-389q-57 0 -112 -7zM755 427v-83q-48 7 -112 7h-287q-64 0 -112 -7v83q48 -7 112 -7h287q66 0 112 7z" />
    <glyph glyph-name="Omicron" unicode="&#x39f;" 
d="M500 775q158 0 251.5 -107t93.5 -288t-94 -288t-252 -107t-251.5 107t-93.5 288q0 180 94 287.5t252 107.5zM501 56q105 0 173 68q89 87 89 256q0 168 -88 256q-71 69 -175 69q-120 0 -192.5 -88.5t-72.5 -235.5t73 -236t193 -89z" />
    <glyph glyph-name="Pi" unicode="&#x3a0;" 
d="M708 690h-418v-578q0 -65 8 -112h-93q8 48 8 112v537q0 61 -8 114q52 -3 109 -3h370q57 0 110 3q-8 -56 -8 -114v-537q0 -65 8 -112h-94q8 48 8 112v578z" />
    <glyph glyph-name="Rho" unicode="&#x3a1;" 
d="M340 0h-94q8 48 8 112v537q0 58 -8 114q54 -3 110 -3h204q115 0 178 -57t63 -161q0 -110 -64.5 -171t-181.5 -61h-223v-197q0 -68 8 -113zM332 379h223q80 0 123 41.5t43 117.5q0 75 -42.5 114t-123.5 39h-223v-312z" />
    <glyph glyph-name="Sigma" unicode="&#x3a3;" 
d="M537 403l-242 209q-6 6 -18 16t-17 15q-35 30 -50 42v78q57 -3 112 -3h342q67 0 112 7v-84q-50 7 -112 7h-295q-28 0 -58 3q6 -5 19 -16q5 -5 11 -9q10 -8 11 -9l295 -256l-309 -295q-24 -24 -43 -40q68 2 71 2h315q59 0 112 7v-84q-55 7 -112 7h-380q-60 0 -114 -3v73
q24 21 80 74z" />
    <glyph glyph-name="Tau" unicode="&#x3a4;" 
d="M538 690v-577q0 -65 8 -113h-94q8 41 8 113v577h-156q-69 0 -115 -7v84q49 -7 114 -7h390q72 0 118 7v-84q-46 7 -118 7h-155z" />
    <glyph glyph-name="Upsilon" unicode="&#x3a5;" 
d="M912 731l-45 -72q-33 39 -95 39q-130 0 -200 -181q-33 -85 -33 -206v-199q0 -67 8 -112h-94q8 45 8 112v198q0 194 -88 309q-60 77 -145 77q-62 0 -95 -39l-45 73q58 44 136 44q127 0 206 -109q57 -80 71 -195q11 82 38 139q78 166 239 166q77 0 134 -44z" />
    <glyph glyph-name="Phi" unicode="&#x3a6;" 
d="M546 0h-93q8 45 8 109q-115 6 -183 35q-157 67 -157 243q0 174 156 243q39 17 75 24.5t109 11.5q0 50 -8 94h93q-7 -38 -8 -94q121 -7 185 -35q157 -69 157 -244q0 -176 -156 -243q-67 -30 -186 -36q1 -69 8 -108zM462 178v418q-97 -4 -149 -26q-113 -48 -113 -183
q0 -134 113 -182q51 -23 149 -27zM537 596v-418q102 5 151 26q113 50 113 183q0 135 -113 183q-49 21 -151 26z" />
    <glyph glyph-name="Chi" unicode="&#x3a7;" 
d="M498 348l-165 -246q-36 -56 -60 -102h-114q43 56 89 119l201 283l-177 250q-49 66 -82 108h112q18 -39 56 -95l143 -211l138 211q43 64 55 95h113q-39 -47 -83 -109l-176 -249l200 -281q29 -42 92 -121h-115q-40 69 -62 101z" />
    <glyph glyph-name="Psi" unicode="&#x3a8;" 
d="M537 655v-417q60 1 82 5t42 16q58 34 67 123l21 195q5 48 27 88q29 53 117 53q17 0 32 -2l-2 -75q-22 2 -29 2q-32 0 -48.5 -20t-20.5 -64l-21 -185q-15 -138 -115 -181q-30 -13 -55 -17t-97 -6v-65q0 -60 8 -105h-93q8 47 8 105v66q-75 2 -97.5 5.5t-52.5 16.5
q-100 42 -115 181l-21 185q-5 48 -24 67q-18 16 -45 16q-18 0 -29 -1l-2 75q15 3 23 3q29 0 62 -7q77 -17 91 -135l20 -195q9 -88 67 -123q34 -19 123 -21v416q0 62 -8 106h93q-8 -44 -8 -105z" />
    <glyph glyph-name="uni03A9" unicode="&#x3a9;" 
d="M545 -3v63q66 22 101 51q118 100 118 281q0 142 -72.5 228t-192.5 86q-119 0 -191.5 -86t-72.5 -228q0 -182 118 -280q35 -30 101 -52v-63q-56 3 -111 3h-119q-64 0 -112 -7v82q49 -7 107 -7h100q-49 31 -80 70q-84 105 -84 262q0 182 104 284q92 92 241 92
q158 0 251.5 -102t93.5 -274q0 -159 -88 -265q-26 -33 -77 -67h101q57 0 107 7v-82q-48 7 -112 7h-120q-56 0 -111 -3z" />
    <glyph glyph-name="alpha" unicode="&#x3b1;" 
d="M787 432l-114 -216q-1 -32 -1 -52q0 -64 9 -87t35 -23q36 0 65 39l33 -54q-48 -49 -107 -49q-55 0 -80 38q-16 26 -19 90q-36 -58 -70 -84q-62 -48 -145 -48q-92 0 -147 61t-55 164q0 142 88 240.5t216 98.5q107 0 149 -67q22 -36 22 -116v-26l51 101q26 50 40 97h89
q-27 -45 -59 -107zM601 221q3 48 3 119q0 78 -23 108q-28 39 -89 39q-92 0 -157.5 -82.5t-65.5 -197.5q0 -72 36.5 -114t98.5 -42q71 0 125 59q20 22 41 56q31 52 31 55z" />
    <glyph glyph-name="beta" unicode="&#x3b2;" 
d="M294 103l-32 -114q-18 -68 -22 -108h-92q20 46 38 111l130 472q45 162 104 232q64 76 176 76q86 0 139 -46.5t53 -122.5q0 -83 -53 -141q-23 -24 -49.5 -37.5t-74.5 -24.5q53 -12 90 -49q51 -53 51 -128q0 -103 -68 -168t-177 -65q-78 0 -134 36q-47 29 -79 77zM385 445
l-71 -264q21 -42 44 -64q62 -62 148 -62q74 0 121 47.5t47 120.5q0 83 -71 124q-43 25 -96 25q-31 0 -61 -5l20 76q26 -5 56 -5q94 0 144 48q48 48 48 111q0 50 -33.5 80.5t-87.5 30.5q-74 0 -122 -60.5t-86 -202.5z" />
    <glyph glyph-name="gamma" unicode="&#x3b3;" 
d="M821 544l-21 -75q-12 1 -34 1q-92 0 -169 -69q-70 -63 -121 -143.5t-74 -162.5l-30 -106q-19 -67 -22 -108h-93q16 32 38 112l70 249q26 93 26 158q0 82 -44 82h-2q-33 -2 -72 -44l-38 58q65 55 120 55q102 0 102 -131q0 -44 -13 -113q40 62 69.5 96.5t70.5 68.5
q92 72 222 72h15z" />
    <glyph glyph-name="delta" unicode="&#x3b4;" 
d="M780 761l-21 -70q-87 20 -167 20q-22 0 -22 -8q0 -6 27 -35q67 -74 106.5 -162t39.5 -165q0 -122 -65 -226q-39 -61 -104 -94.5t-143 -33.5q-105 0 -166.5 62.5t-61.5 168.5q0 141 86.5 235.5t215.5 94.5q69 0 120 -33q-31 68 -122 169q-20 22 -20 40q0 25 26 36
q25 12 93 12q87 0 178 -11zM511 485q-122 0 -189 -112q-42 -70 -42 -152q0 -80 40.5 -124.5t113.5 -44.5q102 0 167 82q63 82 63 191q0 74 -41 117t-112 43z" />
    <glyph glyph-name="epsilon" unicode="&#x3b5;" 
d="M735 462l-62 -39q-21 35 -53.5 50.5t-85.5 15.5q-65 0 -105.5 -28t-40.5 -74q0 -34 23 -54q20 -17 68 -17q72 0 114 7l-21 -78q-43 7 -103 7q-66 0 -100 -30q-37 -32 -37 -78q0 -44 33.5 -68.5t92.5 -24.5q112 0 168 76l67 -33q-30 -40 -60 -61q-69 -46 -171 -46
q-103 0 -153 40q-53 41 -53 110q0 70 49 113q25 22 73 39q-64 28 -64 103q0 71 62.5 115.5t162.5 44.5q135 0 196 -90z" />
    <glyph glyph-name="zeta" unicode="&#x3b6;" 
d="M631 -119h-98q27 20 48.5 51t21.5 50q0 18 -34 18h-165q-80 0 -126.5 46.5t-46.5 126.5q0 112 77.5 230.5t211.5 210.5q-48 -12 -84 -12q-43 0 -68 22t-25 60q0 46 44 85l64 -29q-32 -20 -32 -50q0 -14 11 -22t30 -8q73 0 196 53q51 22 119 57l32 -66q-96 -41 -147.5 -70
t-107.5 -73q-111 -87 -176.5 -190t-65.5 -191q0 -58 27.5 -84.5t89.5 -26.5h164q94 0 94 -68q0 -57 -54 -120z" />
    <glyph glyph-name="eta" unicode="&#x3b7;" 
d="M287 0h-93q17 34 38 112l82 302q5 18 5 31q0 39 -34 39q-28 0 -73 -33l-29 62q68 37 120 37q40 0 61.5 -20.5t21.5 -57.5q0 -12 -6 -42q33 42 59 61q80 60 169 60q75 0 117.5 -35t42.5 -97q0 -32 -9 -65l-99 -363q-20 -75 -22 -110h-93q16 36 38 111l94 346q10 40 10 70
q0 79 -100 79q-77 0 -153 -74q-61 -61 -75 -116l-50 -185q-18 -70 -22 -112z" />
    <glyph glyph-name="theta" unicode="&#x3b8;" 
d="M563 773q91 0 139.5 -68.5t48.5 -196.5q0 -208 -90 -371q-39 -72 -96 -110.5t-125 -38.5q-92 0 -141 68.5t-49 196.5q0 202 87 367q27 50 66.5 87.5t82.5 52.5q36 13 77 13zM344 429h326q8 63 8 91q0 92 -31.5 140.5t-90.5 48.5q-69 0 -125 -73q-54 -75 -87 -207z
M660 364h-327q-9 -74 -9 -108q0 -94 33 -153q27 -51 87 -51q73 0 130.5 82.5t85.5 229.5z" />
    <glyph glyph-name="iota" unicode="&#x3b9;" 
d="M580 112l34 -64q-39 -33 -73.5 -46.5t-78.5 -13.5q-99 0 -99 91q0 22 8 54l79 293q20 73 23 113h94q-16 -34 -38 -113l-80 -292q-6 -21 -6 -40q0 -38 38 -38q49 0 99 56z" />
    <glyph glyph-name="kappa" unicode="&#x3ba;" 
d="M380 327h16q43 0 76 24q19 14 132 132q57 60 114 60q31 0 62 -4l-22 -66q-13 3 -30 3q-31 0 -60 -29q-102 -102 -133 -125t-71 -28q36 -5 56 -28q12 -13 24 -39q3 -6 47 -130q8 -24 16.5 -32.5t24.5 -8.5q29 0 56 33l31 -62q-42 -39 -98 -39q-57 0 -81 41q-10 18 -51 145
q-15 49 -29 64q-18 22 -54 22h-44l-39 -147q-20 -71 -23 -113h-92q17 38 38 114l86 317q17 61 22 108h91q-15 -30 -36 -108z" />
    <glyph glyph-name="lambda" unicode="&#x3bb;" 
d="M524 572l-6 66q-3 35 -12.5 49t-28.5 14q-37 0 -89 -55l-36 63q74 62 142 62q46 0 68 -26.5t27 -87.5l48 -545q3 -44 38 -44q41 0 71 40l35 -66q-54 -47 -116 -47q-95 0 -102 101l-29 368l-229 -364q-43 -70 -53 -100h-109q35 40 70 95z" />
    <glyph glyph-name="uni03BC" unicode="&#x3bc;" 
d="M788 98l33 -57q-56 -50 -118 -50q-40 0 -63 21.5t-23 58.5q0 11 4 31q-28 -53 -78.5 -82t-114.5 -29q-114 0 -143 105l-30 -113q-18 -63 -20 -102h-93q19 42 38 112l118 434q20 76 22 112h93q-18 -41 -38 -112l-47 -171q-10 -39 -10 -75q0 -59 31.5 -91.5t88.5 -32.5
q70 0 130 60q41 41 64 124l49 186q20 72 23 112h93q-16 -34 -38 -112l-80 -293q-6 -18 -6 -33q0 -20 12 -32t32 -12q37 0 71 41z" />
    <glyph glyph-name="nu" unicode="&#x3bd;" 
d="M360 0h-78q14 39 31 111q59 245 59 309q0 65 -49 65q-30 0 -75 -31l-30 61q64 36 120 36q54 0 79 -29t25 -91q0 -49 -8 -93.5t-41 -179.5q-15 -57 -21 -76l30 21q88 61 132 105q89 85 138 214q17 44 35 117h83q-30 -115 -63 -188q-72 -154 -216 -255q-23 -16 -86 -53
q-32 -19 -65 -43z" />
    <glyph glyph-name="xi" unicode="&#x3be;" 
d="M640 -119h-98q27 20 47.5 50.5t20.5 50.5q0 18 -31 18h-185q-110 0 -147 43q-26 31 -26 74q0 97 85 179q48 47 136 84q-48 1 -71 22q-27 25 -27 59q0 70 57 119q27 26 77 48q-24 -4 -44 -4q-84 0 -84 68q0 48 52 82l58 -33q-35 -17 -35 -41t42 -24q40 0 119 22
q97 29 199 72l20 -71q-242 -70 -328 -137q-53 -41 -53 -85q0 -55 86 -55q35 0 145 24l10 -73q-112 -13 -176 -38q-86 -34 -137 -89t-51 -114q0 -34 24 -49t77 -15h197q93 0 93 -70q0 -52 -52 -117z" />
    <glyph glyph-name="omicron" unicode="&#x3bf;" 
d="M542 551q105 0 166.5 -62.5t61.5 -168.5q0 -136 -84 -233q-88 -100 -227 -100q-104 0 -166 62t-62 168q0 77 30.5 147t83.5 117q81 70 197 70zM541 487q-114 0 -180 -101q-52 -77 -52 -175q0 -74 41 -117t113 -43q53 0 99.5 26.5t78.5 74.5q52 80 52 177q0 73 -41 115.5
t-111 42.5z" />
    <glyph glyph-name="pi" unicode="&#x3c0;" 
d="M716 103l27 -62q-65 -54 -138 -54q-47 0 -72.5 23.5t-25.5 66.5q0 28 7 53l92 343h-154l-122 -364q-19 -58 -29 -109h-91q20 37 44 108l121 365q-63 0 -95 -23q-26 -20 -47 -61l-49 48q19 32 36 49t43 31q46 22 104 22h343q66 0 115 7l-21 -80q-45 7 -100 7h-22l-92 -339
q-7 -24 -7 -46q0 -32 40 -32q42 0 93 47z" />
    <glyph glyph-name="rho" unicode="&#x3c1;" 
d="M316 133l-38 -142q-17 -65 -20 -110h-94q17 39 37 112l84 302q36 131 108.5 194t187.5 63q105 0 164 -70q56 -62 56 -153q0 -152 -77 -243.5t-206 -91.5q-105 0 -165 69q-23 26 -37 70zM572 488q-54 0 -99 -27t-73 -76q-44 -77 -44 -153q0 -79 43 -126t115 -47
q96 0 153 75q59 78 59 186q0 77 -41.5 122.5t-112.5 45.5z" />
    <glyph glyph-name="sigma" unicode="&#x3c3;" 
d="M819 546l-22 -81q-35 6 -94 6q31 -36 43 -73t12 -80q0 -63 -22 -124t-60 -106q-87 -102 -229 -102q-105 0 -166.5 62t-61.5 168q0 138 83 234q86 100 229 100q38 0 81 -11h92q67 0 115 7zM527 486q-97 0 -164 -78.5t-67 -191.5q0 -76 41 -120.5t112 -44.5q97 0 165 79
t68 192q0 76 -41.5 120t-113.5 44z" />
    <glyph glyph-name="tau" unicode="&#x3c4;" 
d="M790 546l-22 -81q-45 7 -104 7h-113l-90 -338q-6 -26 -6 -46q0 -31 38 -31q41 0 91 46l31 -62q-69 -54 -141 -54q-47 0 -73 23.5t-26 66.5q0 28 7 53l91 342h-80q-53 0 -90 -31q-22 -20 -38 -54l-51 49q33 55 81 81q44 22 104 22h276q67 0 115 7z" />
    <glyph glyph-name="upsilon" unicode="&#x3c5;" 
d="M253 453l-27 63q66 36 116 36q83 0 83 -76q0 -26 -9 -55l-60 -205q-12 -40 -12 -77q0 -41 22 -63.5t63 -22.5q103 0 173 114q64 104 64 263q0 54 -11 109h85q5 -51 5 -94q0 -203 -90 -330.5t-234 -127.5q-72 0 -112.5 37t-40.5 104q0 46 14 91l64 212q5 17 5 29
q0 25 -26 25q-30 0 -72 -32z" />
    <glyph glyph-name="phi" unicode="&#x3c6;" 
d="M460 -7l-6 -20q-17 -64 -17 -92h-92q16 31 32 93l8 27q-75 21 -118 67q-64 70 -64 171q0 71 30 134t84 106q58 47 133 62q29 6 83 9l27 100q18 72 22 110h92q-18 -35 -37 -108l-29 -106q78 -17 123 -64q71 -71 71 -178q0 -71 -29.5 -133t-82.5 -106q-46 -37 -98.5 -53.5
t-131.5 -18.5zM403 66l114 419q-56 -4 -93 -19t-70 -47q-74 -71 -74 -179q0 -81 52 -133q30 -29 71 -41zM590 481l-114 -424q57 2 95 17q70 26 112 88t42 139q0 91 -59 144q-28 26 -76 36z" />
    <glyph glyph-name="chi" unicode="&#x3c7;" 
d="M479 149l-154 -183q-47 -55 -63 -85h-115q33 28 81 82l236 273l-18 186q-3 34 -11 46.5t-28 12.5q-38 0 -82 -45l-37 59q70 57 136 57q43 0 64 -25t26 -81l13 -146l126 152q46 56 63 87h114q-36 -30 -81 -82l-208 -243l20 -219q4 -42 38 -42q40 0 70 39l35 -65
q-52 -46 -112 -46q-92 0 -99 92z" />
    <glyph glyph-name="psi" unicode="&#x3c8;" 
d="M189 456l-28 62q64 34 116 34q82 0 82 -71q0 -23 -9 -51l-56 -178q-11 -38 -11 -70q0 -51 31 -82q27 -29 81 -37l158 585q19 70 22 112h91q-18 -37 -38 -112l-158 -587q48 8 78 20.5t63 39.5q62 51 97.5 139.5t35.5 190.5q0 45 -8 88h79q3 -47 3 -67q0 -218 -111 -355
q-67 -85 -177 -110q-29 -7 -77 -12l-6 -22q-15 -49 -18 -92h-91q11 19 33 93l7 24q-41 7 -64 17t-45 31q-56 53 -56 136q0 39 12 80l54 172q5 17 5 29q0 23 -25 23q-26 0 -70 -30z" />
    <glyph glyph-name="omega" unicode="&#x3c9;" 
d="M757 541l81 11q27 -92 27 -182q0 -161 -80.5 -271.5t-198.5 -110.5q-80 0 -110 52q-12 21 -12 56q-34 -53 -59 -72q-47 -36 -112 -36q-87 0 -131 69q-33 53 -33 129q0 173 129 366l78 -21q-132 -184 -132 -349q0 -61 25.5 -95.5t70.5 -34.5q53 0 92.5 43t61.5 125l41 150
q18 69 22 110h88q-16 -33 -39 -112l-41 -147q-14 -51 -14 -93q0 -34 21.5 -54.5t57.5 -20.5q83 0 141 93t58 226q0 82 -32 169z" />
    <glyph glyph-name="afii10023" unicode="&#x401;" 
d="M347 873h85v-72h-85v72zM567 873h85v-72h-85v72zM770 77v-84q-45 7 -112 7h-293q-59 0 -110 -3q8 51 8 119v533q0 55 -8 114q52 -3 110 -3h285q64 0 112 7v-84q-49 7 -112 7h-308v-256h263q59 0 112 7v-84q-48 7 -112 7h-263v-294h317q59 0 111 7z" />
    <glyph glyph-name="afii10017" unicode="&#x410;" 
d="M861 0h-103q-11 51 -31 102l-52 129h-349l-52 -129q-21 -54 -31 -102h-104q23 38 54 115l224 552q25 63 32 93h101q4 -21 34 -93l224 -552q35 -83 53 -115zM651 300l-129 330q-1 3 -2.5 6.5t-6.5 19t-13 38.5l-11 -33q-2 -7 -4.5 -14t-4 -11t-2.5 -6l-128 -330h301z" />
    <glyph glyph-name="afii10018" unicode="&#x411;" 
d="M757 767v-83q-48 7 -114 7h-331v-231h240q122 0 185 -58t63 -170t-63.5 -172t-182.5 -60h-218q-49 0 -109 -3q8 53 8 114v538q0 61 -8 114q60 -3 109 -3h306q60 0 115 7zM312 68h240q82 0 125.5 42t43.5 121t-43.5 120t-127.5 41h-238v-324z" />
    <glyph glyph-name="afii10019" unicode="&#x412;" 
d="M555 0h-224q-57 0 -110 -3q9 51 9 124v535q0 58 -8 106q31 -2 109 -2h213q109 0 167.5 -47.5t58.5 -136.5q0 -86 -54 -134q-27 -23 -79 -40q62 -12 97 -42q62 -53 62 -150q0 -100 -63 -155t-178 -55zM307 434h236q70 0 109 35t39 98q0 125 -149 125h-235v-258zM307 366
v-298h241q82 0 124.5 38t42.5 110q0 150 -169 150h-239z" />
    <glyph glyph-name="afii10020" unicode="&#x413;" 
d="M373 689v-572q0 -72 8 -117h-95q8 45 8 116v533q0 57 -8 114q53 -3 109 -3h266q62 0 115 7v-85q-48 7 -114 7h-289z" />
    <glyph glyph-name="afii10021" unicode="&#x414;" 
d="M119 -49v47q0 30 -7 74q9 0 26 -1q13 -1 38 -1q59 139 81 241q30 141 30 307v31q0 64 -8 115q59 -4 109 -4h299q49 0 109 3q-8 -55 -8 -114v-579q26 0 60 2q-6 -56 -6 -65v-52q0 -42 7 -75h-92q7 35 7 89v32h-567v-58q0 -35 7 -63h-93q8 37 8 71zM256 70h456v619h-348
q-1 -226 -24 -351q-22 -125 -84 -268z" />
    <glyph glyph-name="afii10022" unicode="&#x415;" 
d="M770 77v-84q-45 7 -112 7h-293q-59 0 -110 -3q8 51 8 119v533q0 55 -8 114q52 -3 110 -3h285q64 0 112 7v-84q-49 7 -112 7h-308v-256h263q59 0 112 7v-84q-48 7 -112 7h-263v-294h317q59 0 111 7z" />
    <glyph glyph-name="afii10024" unicode="&#x416;" 
d="M537 363v-251q0 -67 8 -112h-92q8 47 8 112v251h-25q-36 0 -55 -2.5t-37 -8.5t-33 -25t-30 -41.5t-41 -69.5q-83 -149 -98 -216h-104q18 27 33 54l40 72l60 108q55 99 87 130t85 39q-49 11 -83 71l-105 189q-19 32 -41 32q-16 0 -31 -12l-19 72q34 14 64 14
q31 0 50.5 -15.5t42.5 -57.5l112 -207q19 -34 41.5 -47t62.5 -13h24v219q0 61 -8 112h92q-8 -48 -8 -112v-219h24q41 0 63.5 13t40.5 47l112 207q22 42 42 57.5t51 15.5q30 0 64 -14l-19 -71q-14 11 -31 11q-23 0 -40 -32l-106 -190q-32 -57 -83 -71q25 -4 38.5 -7.5
t32.5 -18.5t31.5 -30.5t39 -58t50 -85.5t69.5 -128q21 -38 44 -74h-104q-7 32 -35 93q-105 212 -149 247q-19 15 -41.5 19t-93.5 4z" />
    <glyph glyph-name="afii10025" unicode="&#x417;" 
d="M185 165l85 21q15 -45 35 -67q58 -64 178 -64q112 0 173 59q40 40 40 102q0 147 -201 147q-65 0 -110 -7v81q49 -7 100 -7q89 0 136.5 38t47.5 110q0 59 -49.5 95t-130.5 36q-103 0 -154 -56q-21 -24 -35 -68l-84 18q26 63 54 93q75 80 225 80q115 0 185 -51.5t70 -136.5
q0 -83 -42 -128q-42 -46 -128 -61q89 -9 134 -44q64 -49 64 -146q0 -105 -78.5 -164t-218.5 -59q-126 0 -200 48q-34 22 -54.5 50t-41.5 81z" />
    <glyph glyph-name="afii10026" unicode="&#x418;" 
d="M703 760h105q-8 -48 -8 -112v-529q0 -76 8 -119h-93q8 44 8 119v427q0 52 6 122q-31 -61 -55 -96l-321 -482q-32 -49 -52 -90h-109q8 43 8 112v533q0 67 -8 115h93q-8 -47 -8 -115v-424q0 -13 -6 -133q35 62 65 109l316 473q40 62 51 90z" />
    <glyph glyph-name="afii10027" unicode="&#x419;" 
d="M601 879h73q-15 -54 -58 -84q-51 -35 -123 -35q-70 0 -113.5 30.5t-56.5 88.5h72q18 -63 100 -63q56 0 84 25q14 11 22 38zM703 760h105q-8 -48 -8 -112v-529q0 -76 8 -119h-93q8 44 8 119v427q0 52 6 122q-31 -61 -55 -96l-321 -482q-32 -49 -52 -90h-109q8 43 8 112
v533q0 67 -8 115h93q-8 -47 -8 -115v-424q0 -13 -6 -133q35 62 65 109l316 473q40 62 51 90z" />
    <glyph glyph-name="afii10028" unicode="&#x41a;" 
d="M839 0h-114q-10 30 -28.5 62.5t-99.5 157.5q-39 61 -56.5 83t-38.5 37q-34 22 -94 22h-57v-250q0 -63 8 -112h-94q9 50 9 112v536q0 63 -8 112h93q-8 -48 -8 -112v-216h41q73 0 123 81l109 182q25 41 48.5 57.5t57.5 16.5q30 0 63 -16l-25 -72q-17 14 -33 14
q-22 0 -42 -33l-114 -185q-36 -57 -95 -73q59 -10 96 -42q31 -27 133 -181q93 -141 126 -181z" />
    <glyph glyph-name="afii10029" unicode="&#x41b;" 
d="M108 6l23 76q22 -16 46 -16q35 0 52.5 30t20.5 96l22 449q2 26 2 50q0 35 -4 72q53 -3 110 -3h276q56 0 109 3q-8 -52 -8 -114v-535q0 -69 8 -114h-93q8 45 8 114v575h-328l-25 -509q-4 -98 -39 -143.5t-105 -45.5q-42 0 -75 15z" />
    <glyph glyph-name="afii10030" unicode="&#x41c;" 
d="M426 105l-201 446q-19 41 -45 124q7 -100 7 -129v-428q0 -73 8 -118h-91q8 49 8 118v523q0 70 -8 119h116q9 -47 33 -99l247 -551l246 551q26 59 34 99h115q-8 -51 -8 -119v-523q0 -70 8 -118h-91q8 45 8 118v434q0 51 7 123q-15 -62 -43 -122l-204 -449
q-28 -63 -38 -104h-71q-7 38 -37 105z" />
    <glyph glyph-name="afii10031" unicode="&#x41d;" 
d="M718 760h94q-8 -51 -8 -110v-538q0 -60 8 -112h-94q8 49 8 112v253h-452v-253q0 -64 8 -112h-94q8 45 8 112v536q0 65 -8 112h94q-8 -49 -8 -110v-214h452v212q0 67 -8 112z" />
    <glyph glyph-name="afii10032" unicode="&#x41e;" 
d="M500 775q158 0 251.5 -107t93.5 -288t-94 -288t-252 -107t-251.5 107t-93.5 288q0 180 94 287.5t252 107.5zM501 56q105 0 173 68q89 87 89 256q0 168 -88 256q-71 69 -175 69q-120 0 -192.5 -88.5t-72.5 -235.5t73 -236t193 -89z" />
    <glyph glyph-name="afii10033" unicode="&#x41f;" 
d="M708 690h-418v-578q0 -65 8 -112h-93q8 48 8 112v537q0 61 -8 114q52 -3 109 -3h370q57 0 110 3q-8 -56 -8 -114v-537q0 -65 8 -112h-94q8 48 8 112v578z" />
    <glyph glyph-name="afii10034" unicode="&#x420;" 
d="M340 0h-94q8 48 8 112v537q0 58 -8 114q54 -3 110 -3h204q115 0 178 -57t63 -161q0 -110 -64.5 -171t-181.5 -61h-223v-197q0 -68 8 -113zM332 379h223q80 0 123 41.5t43 117.5q0 75 -42.5 114t-123.5 39h-223v-312z" />
    <glyph glyph-name="afii10035" unicode="&#x421;" 
d="M819 567l-80 -23q-20 57 -47 88q-61 72 -173 72q-122 0 -193 -87t-71 -236q0 -148 71.5 -236t192.5 -88q123 0 187 84q28 39 40 99l83 -19q-22 -76 -54 -119q-87 -116 -259 -116q-148 0 -234 88q-108 108 -108 304q0 199 114 311q88 85 229 85q143 0 224 -81
q47 -46 78 -126z" />
    <glyph glyph-name="afii10036" unicode="&#x422;" 
d="M538 690v-577q0 -65 8 -113h-94q8 41 8 113v577h-156q-69 0 -115 -7v84q49 -7 114 -7h390q72 0 118 7v-84q-46 7 -118 7h-155z" />
    <glyph glyph-name="afii10037" unicode="&#x423;" 
d="M510 253l195 399q31 63 42 108h108q-23 -31 -60 -103l-293 -572q-30 -58 -72.5 -84.5t-106.5 -26.5q-54 0 -104 17l18 80q39 -22 90 -22q66 0 105 71l33 61l-234 474q-35 69 -57 105h106q6 -32 39 -103z" />
    <glyph glyph-name="afii10038" unicode="&#x424;" 
d="M546 0h-93q8 45 8 109q-115 6 -183 35q-157 67 -157 243q0 174 156 243q39 17 75 24.5t109 11.5q0 50 -8 94h93q-7 -38 -8 -94q121 -7 185 -35q157 -69 157 -244q0 -176 -156 -243q-67 -30 -186 -36q1 -69 8 -108zM462 178v418q-97 -4 -149 -26q-113 -48 -113 -183
q0 -134 113 -182q51 -23 149 -27zM537 596v-418q102 5 151 26q113 50 113 183q0 135 -113 183q-49 21 -151 26z" />
    <glyph glyph-name="afii10039" unicode="&#x425;" 
d="M498 348l-165 -246q-36 -56 -60 -102h-114q43 56 89 119l201 283l-177 250q-49 66 -82 108h112q18 -39 56 -95l143 -211l138 211q43 64 55 95h113q-39 -47 -83 -109l-176 -249l200 -281q29 -42 92 -121h-115q-40 69 -62 101z" />
    <glyph glyph-name="afii10040" unicode="&#x426;" 
d="M763 649v-579q38 0 66 4q-8 -60 -8 -108q0 -57 8 -86h-92q7 29 7 86v34h-431q-49 0 -109 -3q8 56 8 114v538q0 62 -8 111h93q-8 -48 -8 -111v-579h397v579q0 62 -8 111h93q-8 -48 -8 -111z" />
    <glyph glyph-name="afii10041" unicode="&#x427;" 
d="M658 111v196q-130 -17 -234 -17q-119 0 -162 33.5t-43 127.5v198q0 63 -8 111h93q-8 -48 -8 -111v-194q0 -60 30 -77.5t131 -17.5q91 0 202 12v277q0 65 -9 111h94q-8 -47 -8 -111v-538q0 -64 8 -111h-94q8 48 8 111z" />
    <glyph glyph-name="afii10042" unicode="&#x428;" 
d="M537 70h295v579q0 70 -8 111h92q-8 -48 -8 -111v-538q0 -62 8 -114q-60 3 -109 3h-614q-49 0 -109 -3q8 56 8 114v538q0 62 -8 111h91q-8 -48 -8 -111v-579h295v579q0 62 -8 111h91q-8 -49 -8 -111v-579z" />
    <glyph glyph-name="afii10043" unicode="&#x429;" 
d="M895 649v-579q27 0 56 4q-8 -57 -8 -106q0 -61 8 -88h-94q8 28 8 86v34h-680q-49 0 -109 -3q8 57 8 114v538q0 62 -8 111h92q-8 -48 -8 -111v-579h291v579q0 62 -8 111h91q-8 -48 -8 -111v-579h293v579q0 63 -8 111h92q-8 -48 -8 -111z" />
    <glyph glyph-name="afii10044" unicode="&#x42a;" 
d="M328 690h-167q-68 0 -91 -5q-12 -4 -19 -4l-1 1v84q43 -6 114 -6h140q56 0 109 3q-8 -55 -8 -115v-188h246q116 0 178.5 -59.5t62.5 -169.5q0 -111 -62.5 -171t-178.5 -60h-222q-49 0 -109 -3q8 53 8 115v578zM405 68h240q80 0 123.5 42t43.5 119q0 79 -43.5 121
t-126.5 42h-237v-324z" />
    <glyph glyph-name="afii10045" unicode="&#x42b;" 
d="M141 760h92q-9 -46 -9 -105v-195h234q116 0 178.5 -59.5t62.5 -169.5q0 -112 -62.5 -171.5t-178.5 -59.5h-208q-49 0 -109 -3q8 53 8 114v542q0 63 -8 107zM224 68h230q80 0 123.5 42t43.5 121q0 78 -44 119.5t-126 41.5h-227v-324zM767 760h92q-8 -48 -8 -112v-536
q0 -65 8 -112h-92q8 48 8 112v536q0 63 -8 112z" />
    <glyph glyph-name="afii10046" unicode="&#x42c;" 
d="M246 760h93q-8 -47 -8 -111v-189h247q116 0 178.5 -59.5t62.5 -169.5q0 -111 -62.5 -171t-178.5 -60h-223q-49 0 -109 -3q8 52 8 114v537q0 64 -8 112zM331 68h241q80 0 123.5 42t43.5 120q0 79 -43.5 120.5t-126.5 41.5h-238v-324z" />
    <glyph glyph-name="afii10047" unicode="&#x42d;" 
d="M734 358h-283q-69 0 -115 -7v82q56 -7 115 -7h282q-7 70 -21 111.5t-43 79.5q-69 89 -193 89q-64 0 -116.5 -26t-84.5 -74q-13 -21 -28 -62l-79 22q28 67 59 105q89 104 250 104q145 0 231 -86q108 -110 108 -308q0 -183 -92 -288.5t-252 -105.5q-181 0 -269 131
q-22 32 -45 104l81 20q15 -69 51 -110q64 -75 179 -75q141 0 215 116q24 38 35 77.5t15 107.5z" />
    <glyph glyph-name="afii10048" unicode="&#x42e;" 
d="M317 366h-120v-254q0 -65 8 -112h-92q8 49 8 112v536q0 64 -8 112h92q-8 -45 -8 -110v-214h122q11 99 29 143q37 95 106.5 145.5t163.5 50.5q119 0 194 -78q48 -48 69 -105q37 -100 37 -215q0 -154 -59 -254q-81 -138 -241 -138t-240 135q-30 49 -43.5 102t-17.5 144z
M615 55q88 0 142 59q49 52 69 140q13 65 13 131q0 149 -59.5 235t-163.5 86q-114 0 -175 -105q-48 -83 -48 -225q0 -100 31 -182q24 -65 75 -102t116 -37z" />
    <glyph glyph-name="afii10049" unicode="&#x42f;" 
d="M281 0h-106q19 32 57 120q55 125 89 181q21 33 38 48t42 22q-69 15 -108 50q-60 51 -60 147q0 93 58 142.5t167 49.5h220q56 0 109 3q-8 -53 -8 -115v-536q0 -64 8 -112h-93q8 48 8 113v234h-185q-61 0 -97.5 -38t-82.5 -147q-52 -124 -56 -162zM702 416v275h-243
q-71 0 -108.5 -33.5t-37.5 -97.5q0 -65 42 -104.5t110 -39.5h237z" />
    <glyph glyph-name="afii10065" unicode="&#x430;" 
d="M641 0v71q-50 -45 -92 -61q-52 -20 -104 -20q-83 0 -130 40.5t-47 111.5q0 60 36.5 102.5t106.5 61.5q77 22 230 26v58q0 103 -126 103q-82 0 -124 -43q-18 -20 -31 -58l-78 17q24 61 56 89q62 57 176 57q200 0 200 -164v-281q0 -57 8 -110h-81zM641 208v65
q-162 -4 -221 -29q-76 -31 -76 -102q0 -41 28.5 -65.5t77.5 -24.5q43 0 87 19t73 51q31 34 31 86z" />
    <glyph glyph-name="afii10066" unicode="&#x431;" 
d="M596 654h-97q-89 0 -135 -65q-32 -47 -49 -143q25 37 52 55q65 47 152 47q116 0 182.5 -73t66.5 -200q0 -130 -71.5 -207.5t-192.5 -77.5q-131 0 -200.5 87.5t-69.5 250.5q0 84 16 161t42 122q64 107 201 107h94q69 0 92 53l61 -42q-45 -75 -144 -75zM513 485
q-91 0 -145.5 -59.5t-54.5 -158.5q0 -98 51 -155t139 -57q77 0 128 46q60 55 60 169q0 102 -47 158.5t-131 56.5z" />
    <glyph glyph-name="afii10067" unicode="&#x432;" 
d="M539 0h-149q-49 0 -109 -3q7 55 7 114v316q0 58 -7 115q52 -3 109 -3h140q174 0 174 -130q0 -101 -102 -124q48 -5 77 -28q45 -36 45 -106q0 -73 -48 -112t-137 -39zM362 315h166q49 0 75 22.5t26 63.5q0 75 -101 75h-166v-161zM362 254v-191h171q115 0 115 94
q0 97 -117 97h-169z" />
    <glyph glyph-name="afii10068" unicode="&#x433;" 
d="M717 545v-79q-43 6 -112 6h-182v-360q0 -57 7 -112h-89q7 59 7 112v317q0 61 -7 113q52 -3 108 -3h157q68 0 111 6z" />
    <glyph glyph-name="afii10069" unicode="&#x434;" 
d="M217 -54v53q0 24 -7 70q25 -2 50 -2q51 97 67 182q17 82 17 194q0 45 -6 98q31 -2 108 -2h182q77 0 109 2q-6 -46 -6 -115v-359q14 0 47 2q-6 -36 -6 -70v-52q0 -37 6 -67h-88q7 40 7 83v37h-405v-37q0 -45 6 -83h-88q7 28 7 66zM339 66h319v407h-242q0 -149 -16 -233
q-17 -82 -61 -174z" />
    <glyph glyph-name="afii10070" unicode="&#x435;" 
d="M749 258h-421q4 -92 40 -140q49 -68 141 -68q122 0 165 116l70 -27q-23 -51 -55 -83q-72 -70 -181 -70q-118 0 -187 76.5t-69 206.5q0 128 68 205.5t180 77.5q97 0 162 -58.5t80 -158.5zM331 321h338q-9 80 -53 123q-47 45 -118 45q-95 0 -142 -87q-17 -30 -25 -81z" />
    <glyph glyph-name="afii10072" unicode="&#x436;" 
d="M464 311v122q0 49 -7 106h86q-6 -50 -6 -106v-122h24q39 0 62 40l84 143q17 29 34.5 40t45.5 11q26 0 52 -10l-21 -60q-11 8 -24 8q-16 0 -30 -23l-75 -124q-24 -40 -63 -51q33 -5 49.5 -15.5t38.5 -38.5q20 -25 111 -179q16 -27 34 -52h-95q-9 36 -73 148
q-40 68 -61.5 84.5t-69.5 16.5h-24v-143q0 -56 7 -106h-86q7 57 7 106v143h-23q-50 0 -71 -16.5t-61 -85.5q-61 -103 -74 -147h-94q11 14 36 57q62 108 94 155q27 41 55 58q17 10 48 16q-40 9 -64 50l-75 124q-13 22 -31 22q-12 0 -23 -7l-20 60q29 10 51 10q29 0 46.5 -11
t34.5 -40l83 -143q25 -40 62 -40h26z" />
    <glyph glyph-name="afii10073" unicode="&#x437;" 
d="M265 117l74 19q17 -43 46 -60q36 -24 108 -24q150 0 150 103q0 52 -35.5 73t-123.5 21q-48 0 -66 -6v74q20 -6 55 -6q59 0 96 13q25 7 39 29t14 53q0 82 -124 82q-66 0 -99 -26q-22 -16 -38 -57l-73 22q28 63 71 90q52 33 147 33q86 0 138.5 -35.5t52.5 -94.5t-30 -92
q-32 -35 -106 -47q77 -5 112 -31q46 -34 46 -102q0 -74 -59.5 -116t-164.5 -42q-131 0 -192 62q-21 24 -38 65z" />
    <glyph glyph-name="afii10074" unicode="&#x438;" 
d="M263 539h88q-7 -53 -7 -112v-259q0 -18 -3 -68q18 32 31 49l236 321q29 41 43 69h85q-6 -61 -6 -112v-315q0 -56 7 -112h-88q7 49 7 112v261q0 39 2 59q-11 -24 -24 -41l-240 -323q-25 -35 -42 -68h-90q8 53 8 112v315q0 52 -7 112z" />
    <glyph glyph-name="afii10075" unicode="&#x439;" 
d="M588 648h63q-9 -37 -31 -59q-46 -46 -120 -46q-80 0 -123 52q-17 20 -25 53h63q6 -25 21 -37q24 -18 65 -18q74 0 87 55zM263 539h88q-7 -53 -7 -112v-259q0 -18 -3 -68q18 32 31 49l236 321q29 41 43 69h85q-6 -61 -6 -112v-315q0 -56 7 -112h-88q7 49 7 112v261
q0 39 2 59q-11 -24 -24 -41l-240 -323q-25 -35 -42 -68h-90q8 53 8 112v315q0 52 -7 112z" />
    <glyph glyph-name="afii10076" unicode="&#x43a;" 
d="M309 539h89q-7 -53 -7 -111v-113h21q23 0 47 14.5t38 37.5l80 131q30 48 88 48q28 0 55 -13l-26 -63q-13 10 -26 10q-19 0 -33 -22l-79 -120q-24 -38 -72 -52q52 -8 81 -34q16 -16 33 -38t101 -141q37 -52 55 -73h-108q-11 33 -84 143q-43 67 -68.5 86.5t-68.5 19.5h-34
v-137q0 -55 7 -112h-89q7 63 7 112v316q0 47 -7 111z" />
    <glyph glyph-name="afii10077" unicode="&#x43b;" 
d="M428 539h173q50 0 104 3q-7 -52 -7 -109v-327q0 -54 7 -106h-89q7 53 7 106v366h-226l-16 -326q-4 -75 -27 -110q-29 -43 -95 -43q-33 0 -62 11l19 69q16 -12 35 -12q34 0 46 29q9 20 10 64l16 300v28q0 36 -2 60q61 -3 107 -3z" />
    <glyph glyph-name="afii10078" unicode="&#x43c;" 
d="M809 0h-84q7 59 7 112v248q0 37 3 70q-13 -36 -23 -56l-146 -280q-30 -56 -39 -94h-54q-10 41 -38 95l-146 279q-13 26 -23 56q3 -38 3 -70v-248q0 -59 7 -112h-85q7 56 7 112v314q0 46 -6 113h96q4 -30 27 -75l186 -360l185 359q23 49 27 76h95q-6 -60 -6 -111v-316
q0 -57 7 -112z" />
    <glyph glyph-name="afii10079" unicode="&#x43d;" 
d="M348 0h-88q7 60 7 112v315q0 52 -7 112h88q-7 -56 -7 -112v-109h318v109q0 56 -7 112h88q-7 -53 -7 -112v-315q0 -56 7 -112h-88q7 57 7 112v139h-318v-139q0 -56 7 -112z" />
    <glyph glyph-name="afii10080" unicode="&#x43e;" 
d="M501 -13q-123 0 -195.5 76t-72.5 206t72.5 206.5t194.5 76.5t194 -76.5t72 -205.5q0 -128 -72 -205.5t-193 -77.5zM502 489q-89 0 -140.5 -58.5t-51.5 -159.5q0 -102 51 -160.5t139 -58.5t138.5 58.5t50.5 159.5t-50.5 160t-136.5 59z" />
    <glyph glyph-name="afii10081" unicode="&#x43f;" 
d="M280 111v315q0 60 -7 116q53 -3 108 -3h239q56 0 108 3q-7 -50 -7 -113v-318q0 -58 7 -111h-88q7 56 7 111v361h-293v-361q0 -58 7 -111h-88q7 57 7 111z" />
    <glyph glyph-name="afii10082" unicode="&#x440;" 
d="M344 539v-52q0 -17 -3 -40q65 102 206 102q114 0 180 -68.5t66 -187.5t-66.5 -188.5t-180.5 -69.5q-138 0 -205 100q4 -43 4 -66v-84q0 -56 7 -104h-88q7 50 7 103v449q0 58 -7 106h80zM716 293q0 90 -47 141.5t-129 51.5q-85 0 -139 -53.5t-54 -138.5q0 -89 52 -142.5
t140 -53.5q82 0 129.5 52.5t47.5 142.5z" />
    <glyph glyph-name="afii10083" unicode="&#x441;" 
d="M738 397l-73 -23q-43 115 -151 115q-82 0 -131 -59.5t-49 -160.5q0 -99 50 -157.5t134 -58.5q89 0 130 64q13 18 22 51l75 -20q-19 -48 -41 -77q-67 -84 -189 -84q-118 0 -188 76t-70 204q0 130 69 208t184 78q127 0 193 -92q19 -26 35 -64z" />
    <glyph glyph-name="afii10084" unicode="&#x442;" 
d="M544 0h-89q7 49 7 112v360h-88q-70 0 -112 -6v79q43 -6 111 -6h254q60 0 111 6v-79q-43 6 -112 6h-89v-360q0 -56 7 -112z" />
    <glyph glyph-name="afii10085" unicode="&#x443;" 
d="M478 47l-183 382q-43 91 -54 110h99q6 -38 33 -99l144 -313l128 312q28 66 33 100h94q-17 -38 -50 -110l-197 -452q-25 -59 -66 -80q-32 -16 -84 -16q-40 0 -88 13l23 72q44 -20 68 -20q52 0 77 52z" />
    <glyph glyph-name="afii10086" unicode="&#x444;" 
d="M537 647v-160q0 -15 -4 -41q56 103 184 103q104 0 165.5 -72.5t61.5 -195.5t-61.5 -195t-165.5 -72q-94 0 -151 57q-21 21 -33 44q4 -31 4 -64v-82q0 -53 7 -88h-87q7 41 7 88v82q0 27 3 64q-21 -46 -71 -73.5t-112 -27.5q-105 0 -166 71.5t-61 194.5q0 124 61.5 196.5
t166.5 72.5q127 0 183 -103q-3 20 -3 42v160q0 55 -7 112h86q-7 -53 -7 -113zM294 485q-75 0 -118.5 -54.5t-43.5 -147.5q0 -96 43 -151t117 -55q81 0 127.5 54.5t46.5 148.5t-46.5 149.5t-125.5 55.5zM707 486q-79 0 -126 -55.5t-47 -148.5q0 -94 47 -149t127 -55
q75 0 118 55t43 151q0 93 -44 147.5t-118 54.5z" />
    <glyph glyph-name="afii10087" unicode="&#x445;" 
d="M750 0h-99q-16 30 -45 74l-106 153l-111 -162q-16 -22 -39 -65h-99q37 46 65 87l139 192l-129 180q-2 4 -60 80h98q13 -30 39 -67l98 -141l97 141q26 38 39 67h96q-11 -16 -31.5 -43.5t-29.5 -39.5l-126 -177l132 -184q10 -13 72 -95z" />
    <glyph glyph-name="afii10088" unicode="&#x446;" 
d="M704 429v-361q23 0 51 2q-7 -46 -7 -73v-54q0 -36 7 -63h-89q7 38 7 85v35h-291q-48 0 -108 -3q7 53 7 113v317q0 55 -6 112h89q-8 -57 -8 -112v-360h273v362q0 53 -7 110h89q-7 -57 -7 -110z" />
    <glyph glyph-name="afii10089" unicode="&#x447;" 
d="M269 539h89q-7 -56 -7 -112v-101q0 -37 19.5 -47t89.5 -10q74 0 138 8v152q0 53 -7 110h89q-7 -56 -7 -110v-319q0 -57 7 -110h-89q7 64 7 110v108q-84 -13 -172 -13q-86 0 -118 24.5t-32 89.5v108q0 50 -7 112z" />
    <glyph glyph-name="afii10090" unicode="&#x448;" 
d="M825 427v-313q0 -66 7 -116q-59 2 -111 2h-446q-48 0 -108 -3q7 56 7 116v314q0 50 -7 112h86q-7 -57 -7 -112v-360h217v361q0 51 -7 111h85q-7 -55 -7 -111v-361h219v360q0 52 -7 112h86q-7 -56 -7 -112z" />
    <glyph glyph-name="afii10091" unicode="&#x449;" 
d="M822 428v-361q34 2 48 3q-7 -48 -7 -73v-51q0 -35 7 -66h-89q7 35 7 85v35h-516q-48 0 -108 -3q7 56 7 116v315q0 48 -7 111h86q-7 -53 -7 -111v-361h217v361q0 52 -7 111h85q-7 -55 -7 -111v-361h219v361q0 51 -7 111h86q-7 -57 -7 -111z" />
    <glyph glyph-name="afii10092" unicode="&#x44a;" 
d="M264 539h76q54 0 106 3q-7 -52 -7 -109v-102h174q88 0 136 -43t48 -122q0 -80 -48 -123t-136 -43h-149q-46 0 -106 -3q7 55 7 114v361h-100q-72 0 -112 -6v79q43 -6 111 -6zM439 65h166q115 0 115 101q0 52 -28 76t-89 24h-164v-201z" />
    <glyph glyph-name="afii10093" unicode="&#x44b;" 
d="M293 331h172q88 0 136.5 -43t48.5 -122q0 -80 -48 -123t-136 -43h-145q-54 0 -108 -3q7 55 7 114v316q0 50 -7 112h87q-7 -57 -7 -112v-96zM293 65h166q61 0 88.5 24t27.5 76q0 53 -28.5 77t-89.5 24h-164v-201zM700 539h87q-7 -56 -7 -112v-316q0 -56 7 -111h-87
q7 56 7 111v316q0 53 -7 112z" />
    <glyph glyph-name="afii10094" unicode="&#x44c;" 
d="M387 331h174q88 0 136 -43t48 -122q0 -80 -48 -123t-136 -43h-147q-48 0 -108 -3q7 53 7 117v316q0 47 -7 109h88q-7 -56 -7 -109v-99zM387 65h166q60 0 87.5 24t27.5 76t-28 76.5t-89 24.5h-164v-201z" />
    <glyph glyph-name="afii10095" unicode="&#x44d;" 
d="M662 247h-180q-71 0 -109 -6v75q49 -6 108 -6h182q-8 71 -44 116q-50 62 -140 62q-86 0 -135 -55q-17 -19 -29 -51l-73 20q28 56 53 80q67 69 186 69q120 0 189.5 -75.5t69.5 -205.5q0 -131 -71 -206.5t-195 -75.5t-186 71q-29 32 -53 98l75 16q11 -43 35 -70
q49 -52 131 -52q102 0 153 81q28 44 33 115z" />
    <glyph glyph-name="afii10096" unicode="&#x44e;" 
d="M279 252v-138q0 -57 7 -114h-88q7 63 7 114v310q0 52 -7 115h88q-7 -57 -7 -114v-109h82q10 60 24 94.5t40 65.5q63 74 171 74q110 0 172 -74t62 -205q0 -130 -63.5 -206t-172.5 -76q-129 0 -192 103q-34 56 -43 160h-80zM593 52q74 0 117.5 59.5t43.5 159.5t-43 158
t-116 58q-74 0 -118 -59.5t-44 -159.5t43 -158t117 -58z" />
    <glyph glyph-name="afii10097" unicode="&#x44f;" 
d="M618 238h-128q-38 0 -60.5 -21t-54.5 -87q-45 -92 -49 -130h-98q15 25 32 60q60 125 82.5 158t55.5 44q-50 5 -79 28q-47 35 -47 106q0 68 45 105.5t128 37.5h146q55 0 108 3q-7 -52 -7 -114v-316q0 -55 7 -112h-88q7 57 7 112v126zM618 303v171h-171q-99 0 -99 -86
q0 -85 104 -85h166z" />
    <glyph glyph-name="afii10071" unicode="&#x451;" 
d="M749 258h-421q4 -92 40 -140q49 -68 141 -68q122 0 165 116l70 -27q-23 -51 -55 -83q-72 -70 -181 -70q-118 0 -187 76.5t-69 206.5q0 128 68 205.5t180 77.5q97 0 162 -58.5t80 -158.5zM331 321h338q-9 80 -53 123q-47 45 -118 45q-95 0 -142 -87q-17 -30 -25 -81z
M344 678h89v-73h-89v73zM566 678h89v-73h-89v73z" />
    <glyph glyph-name="uniFF10" unicode="&#xff10;" 
d="M499 -15q-112 0 -183 71q-43 43 -60 92q-38 106 -38 231q0 80 16 154.5t42 117.5q73 123 224 123q115 0 183 -71q42 -42 60 -92q38 -105 38 -232q0 -192 -70 -289q-75 -105 -212 -105zM499 705q-77 0 -125 -51q-33 -36 -45 -73q-31 -90 -31 -202q0 -69 13.5 -135.5
t33.5 -102.5q53 -87 155 -87q78 0 123 47q34 35 47 78q31 92 31 202q0 65 -13 131.5t-32 101.5q-50 91 -157 91z" />
    <glyph glyph-name="uniFF11" unicode="&#xff11;" 
d="M333 686v79q33 -5 83 -5h63q42 0 83 5q-9 -92 -9 -166v-486q0 -64 8 -113h-95q8 47 8 113v579h-54q-44 0 -87 -6z" />
    <glyph glyph-name="uniFF12" unicode="&#xff12;" 
d="M644 0h-304q-72 0 -110 -6q8 61 13 83t16 50q36 92 130 172q33 28 153 110q74 50 103 88t29 84q0 57 -45 91t-121 34q-100 0 -145 -65q-26 -37 -35 -101l-84 14q11 54 24.5 85t38.5 59q68 77 201 77q113 0 180.5 -52.5t67.5 -141.5q0 -77 -59 -142q-22 -25 -52.5 -48
t-117.5 -81q-100 -67 -144 -123q-42 -55 -57 -116h319q69 0 122 7v-84q-60 6 -123 6z" />
    <glyph glyph-name="uniFF13" unicode="&#xff13;" 
d="M217 164l84 20q12 -38 25 -57.5t36 -36.5q51 -36 129 -36q87 0 138 42t51 113q0 74 -52 113.5t-152 39.5q-35 0 -80 -5v78q38 -5 74 -5q100 0 146 46q40 38 40 97q0 64 -42.5 100t-118.5 36q-92 0 -133 -53q-18 -23 -32 -72l-83 19q22 67 54 100q67 73 199 73
q109 0 173 -53t64 -143q0 -97 -70 -146q-33 -24 -94 -36q77 -8 123 -43q67 -52 67 -151q0 -101 -73 -160t-198 -59q-152 0 -224 82q-28 32 -51 97z" />
    <glyph glyph-name="uniFF14" unicode="&#xff14;" 
d="M198 190v75q8 9 65 77l253 316q42 52 75 102h75q-6 -71 -6 -169v-328h38q54 0 104 7v-83q-52 7 -105 7h-37v-86q0 -59 8 -108h-91q8 47 8 108v86h-268q-75 0 -119 -4zM586 262v254q0 75 6 136q-28 -40 -75 -100l-230 -290h299z" />
    <glyph glyph-name="uniFF15" unicode="&#xff15;" 
d="M367 691l-21 -221q-2 -18 -8 -45q72 69 175 69q110 0 180 -68q67 -66 67 -177q0 -121 -73 -192.5t-197 -71.5q-119 0 -191 69q-32 30 -63 93l82 25q14 -38 32 -59q53 -59 142 -59q84 0 135.5 52.5t51.5 138.5q0 83 -47.5 133t-127.5 50q-77 0 -131 -42q-32 -25 -46 -60
l-75 7q10 49 15 103l22 226q3 44 3 60q0 18 -2 43q39 -5 106 -5h206q64 0 117 8v-85q-51 8 -117 8h-235z" />
    <glyph glyph-name="uniFF16" unicode="&#xff16;" 
d="M754 620l-80 -26q-18 43 -35 63q-45 50 -119 50q-118 0 -173 -124q-20 -45 -28.5 -89t-13.5 -126q24 42 50 64q68 61 169 61q116 0 183.5 -67.5t67.5 -183.5t-72 -186.5t-190 -70.5q-113 0 -181 63q-101 93 -101 314q0 200 76 303q80 109 211 109q93 0 152 -42
q26 -19 44 -43t40 -69zM696 241q0 89 -47.5 137t-135.5 48q-81 0 -138 -57q-50 -50 -50 -127q0 -81 54 -135t135 -54q49 0 91 22t65 59q26 42 26 107z" />
    <glyph glyph-name="uniFF17" unicode="&#xff17;" 
d="M764 765v-73q-23 -18 -74 -96q-67 -104 -104.5 -179t-66.5 -167q-33 -106 -53 -250h-95q24 136 49.5 219.5t71.5 179.5q36 75 74.5 137t105.5 153h-325q-60 0 -113 -7v85q55 -7 114 -7h300q72 0 116 5z" />
    <glyph glyph-name="uniFF18" unicode="&#xff18;" 
d="M602 397q56 -7 103 -42q75 -57 75 -157q0 -103 -72 -158.5t-204 -55.5q-137 0 -210.5 55.5t-73.5 158.5q0 109 89 165q40 27 90 34q-66 13 -105.5 62t-39.5 118q0 92 66.5 145.5t179.5 53.5q115 0 181 -53t66 -145q0 -70 -39 -119t-106 -62zM500 709q-76 0 -122 -37.5
t-46 -99.5q0 -67 45 -105t124 -38t123.5 38t44.5 105q0 63 -46 100t-123 37zM500 360q-92 0 -145 -42t-53 -115q0 -71 52 -111t145 -40q109 0 161 52q38 35 38 99q0 73 -53 115t-145 42z" />
    <glyph glyph-name="uniFF19" unicode="&#xff19;" 
d="M236 140l82 26q16 -44 36 -65q42 -47 126 -47q107 0 161 92q30 53 43 129q6 34 9 116q-17 -33 -40 -55q-74 -70 -182 -70q-114 0 -180 66q-68 68 -68 180q0 119 74 191t197 72q84 0 149 -45t93 -124q29 -77 29 -207q0 -217 -83 -320q-74 -93 -208 -93q-104 0 -168 54
q-37 32 -70 100zM480 333q83 0 138.5 53t55.5 132q0 81 -53.5 135t-133.5 54q-50 0 -92 -22.5t-67 -62.5q-26 -42 -26 -105q0 -85 48 -134.5t130 -49.5z" />
    <glyph glyph-name="uniFF21" unicode="&#xff21;" 
d="M861 0h-103q-11 51 -31 102l-52 129h-349l-52 -129q-21 -54 -31 -102h-104q23 38 54 115l224 552q25 63 32 93h101q4 -21 34 -93l224 -552q35 -83 53 -115zM651 300l-129 330q-1 3 -2.5 6.5t-6.5 19t-13 38.5l-11 -33q-2 -7 -4.5 -14t-4 -11t-2.5 -6l-128 -330h301z" />
    <glyph glyph-name="uniFF22" unicode="&#xff22;" 
d="M555 0h-224q-57 0 -110 -3q9 51 9 124v535q0 58 -8 106q31 -2 109 -2h213q109 0 167.5 -47.5t58.5 -136.5q0 -86 -54 -134q-27 -23 -79 -40q62 -12 97 -42q62 -53 62 -150q0 -100 -63 -155t-178 -55zM307 434h236q70 0 109 35t39 98q0 125 -149 125h-235v-258zM307 366
v-298h241q82 0 124.5 38t42.5 110q0 150 -169 150h-239z" />
    <glyph glyph-name="uniFF23" unicode="&#xff23;" 
d="M819 567l-80 -23q-20 57 -47 88q-61 72 -173 72q-122 0 -193 -87t-71 -236q0 -148 71.5 -236t192.5 -88q123 0 187 84q28 39 40 99l83 -19q-22 -76 -54 -119q-87 -116 -259 -116q-148 0 -234 88q-108 108 -108 304q0 199 114 311q88 85 229 85q143 0 224 -81
q47 -46 78 -126z" />
    <glyph glyph-name="uniFF24" unicode="&#xff24;" 
d="M206 116v533q0 58 -8 114q52 -3 110 -3h169q167 0 258.5 -98t91.5 -277q0 -192 -107 -296q-91 -89 -243 -89h-169q-58 0 -110 -3q8 52 8 119zM284 70h191q120 0 187 71q84 86 84 244t-79 237q-65 68 -188 68h-195v-620z" />
    <glyph glyph-name="uniFF25" unicode="&#xff25;" 
d="M770 77v-84q-45 7 -112 7h-293q-59 0 -110 -3q8 51 8 119v533q0 55 -8 114q52 -3 110 -3h285q64 0 112 7v-84q-49 7 -112 7h-308v-256h263q59 0 112 7v-84q-48 7 -112 7h-263v-294h317q59 0 111 7z" />
    <glyph glyph-name="uniFF26" unicode="&#xff26;" 
d="M363 360v-243q0 -69 8 -117h-95q8 45 8 116v533q0 61 -8 114q53 -3 110 -3h265q62 0 115 7v-85q-46 7 -115 7h-288v-259h234q62 0 114 7v-84q-46 7 -114 7h-234z" />
    <glyph glyph-name="uniFF27" unicode="&#xff27;" 
d="M729 313h-59q-69 0 -103 -6v81q36 -6 109 -6h29q65 0 106 4q-7 -49 -7 -113v-92q0 -64 7 -111q-78 -47 -136 -62q-67 -19 -149 -19q-142 0 -228 74q-59 52 -91 135t-32 184q0 181 94.5 287.5t254.5 106.5q134 0 214 -74q43 -40 73 -114l-78 -26q-53 144 -210 144
q-124 0 -195 -86.5t-71 -237.5q0 -164 84 -254q67 -72 186 -72q115 0 202 56v201z" />
    <glyph glyph-name="uniFF28" unicode="&#xff28;" 
d="M718 760h94q-8 -51 -8 -110v-538q0 -60 8 -112h-94q8 49 8 112v253h-452v-253q0 -64 8 -112h-94q8 45 8 112v536q0 65 -8 112h94q-8 -49 -8 -110v-214h452v212q0 67 -8 112z" />
    <glyph glyph-name="uniFF29" unicode="&#xff29;" 
d="M453 760h95q-9 -50 -9 -112v-536q0 -61 9 -112h-95q8 49 8 112v536q0 64 -8 112z" />
    <glyph glyph-name="uniFF2A" unicode="&#xff2a;" 
d="M583 760h94q-8 -49 -8 -112v-446q0 -98 -41 -151q-50 -64 -161 -64q-107 0 -165 60q-24 26 -50 77l79 33q17 -40 35 -61q36 -39 102 -39q64 0 93.5 34.5t29.5 109.5v447q0 65 -8 112z" />
    <glyph glyph-name="uniFF2B" unicode="&#xff2b;" 
d="M479 442l262 -333q62 -78 94 -109h-116q-23 41 -59 86l-236 304l-117 -115v-163q0 -65 8 -112h-93q8 43 8 112v536q0 63 -8 112h93q-8 -43 -8 -112v-277l304 306q51 51 69 83h118q-18 -17 -26 -25l-44 -44q-18 -19 -33 -34z" />
    <glyph glyph-name="uniFF2C" unicode="&#xff2c;" 
d="M677 0h-292q-57 0 -109 -3q8 51 8 119v526q0 71 -8 118h94q-8 -49 -8 -118v-571h315q61 0 116 7v-85q-45 7 -116 7z" />
    <glyph glyph-name="uniFF2D" unicode="&#xff2d;" 
d="M426 105l-201 446q-19 41 -45 124q7 -100 7 -129v-428q0 -73 8 -118h-91q8 49 8 118v523q0 70 -8 119h116q9 -47 33 -99l247 -551l246 551q26 59 34 99h115q-8 -51 -8 -119v-523q0 -70 8 -118h-91q8 45 8 118v434q0 51 7 123q-15 -62 -43 -122l-204 -449
q-28 -63 -38 -104h-71q-7 38 -37 105z" />
    <glyph glyph-name="uniFF2E" unicode="&#xff2e;" 
d="M192 760h105q11 -28 51 -90l316 -473q30 -47 65 -109q-6 120 -6 133v424q0 68 -8 115h93q-8 -48 -8 -115v-533q0 -69 8 -112h-109q-20 41 -52 90l-321 482q-24 35 -55 96q6 -71 6 -122v-427q0 -75 8 -119h-93q8 43 8 119v529q0 64 -8 112z" />
    <glyph glyph-name="uniFF2F" unicode="&#xff2f;" 
d="M500 775q158 0 251.5 -107t93.5 -288t-94 -288t-252 -107t-251.5 107t-93.5 288q0 180 94 287.5t252 107.5zM501 56q105 0 173 68q89 87 89 256q0 168 -88 256q-71 69 -175 69q-120 0 -192.5 -88.5t-72.5 -235.5t73 -236t193 -89z" />
    <glyph glyph-name="uniFF30" unicode="&#xff30;" 
d="M340 0h-94q8 48 8 112v537q0 58 -8 114q54 -3 110 -3h204q115 0 178 -57t63 -161q0 -110 -64.5 -171t-181.5 -61h-223v-197q0 -68 8 -113zM332 379h223q80 0 123 41.5t43 117.5q0 75 -42.5 114t-123.5 39h-223v-312z" />
    <glyph glyph-name="uniFF31" unicode="&#xff31;" 
d="M816 -6l-54 -56q-21 28 -87 94q-80 -47 -176 -47q-158 0 -251.5 107t-93.5 287q0 181 94 288.5t252 107.5t251.5 -107t93.5 -287q0 -108 -36 -192q-24 -58 -80 -116q60 -59 87 -79zM540 156l55 53q34 -38 80 -84q38 40 56 82q32 79 32 175q0 148 -71 235.5t-191 87.5
q-121 0 -193.5 -88.5t-72.5 -236.5q0 -149 73 -237t196 -88q65 0 118 30q-46 44 -82 71z" />
    <glyph glyph-name="uniFF32" unicode="&#xff32;" 
d="M826 0h-106q-4 40 -59 171q-44 103 -80.5 139.5t-96.5 36.5h-185v-234q0 -65 8 -113h-93q8 48 8 112v536q0 62 -8 115q52 -3 109 -3h220q109 0 167 -49.5t58 -142.5q0 -96 -60 -147q-39 -35 -108 -50q31 -9 53 -33t49 -77q29 -57 79 -168q27 -63 45 -93zM299 416h237
q70 0 113 43q38 37 38 101t-37 97.5t-108 33.5h-243v-275z" />
    <glyph glyph-name="uniFF33" unicode="&#xff33;" 
d="M766 575l-84 -12q-11 54 -35 83q-49 58 -148 58q-77 0 -126 -37.5t-49 -98.5q0 -78 87 -113q26 -11 143 -36q120 -25 172 -74.5t52 -136.5q0 -106 -70 -163.5t-199 -57.5q-171 0 -241 95q-34 46 -47 132l87 11q4 -64 31 -99q52 -69 167 -69q89 0 140 39.5t51 109.5
q0 75 -58 107q-25 14 -49 21.5t-116 27.5q-85 18 -136 46q-93 53 -93 158q0 94 70 150.5t186 56.5q152 0 221 -92q29 -38 44 -106z" />
    <glyph glyph-name="uniFF34" unicode="&#xff34;" 
d="M538 690v-577q0 -65 8 -113h-94q8 41 8 113v577h-156q-69 0 -115 -7v84q49 -7 114 -7h390q72 0 118 7v-84q-46 7 -118 7h-155z" />
    <glyph glyph-name="uniFF35" unicode="&#xff35;" 
d="M717 760h94q-8 -47 -8 -113v-371q0 -133 -77 -213q-77 -79 -227 -79q-152 0 -228 81q-74 77 -74 211v369q0 68 -8 115h94q-8 -43 -8 -115v-366q0 -108 59 -167t166 -59q119 0 175 67q50 61 50 159v366q0 68 -8 115z" />
    <glyph glyph-name="uniFF36" unicode="&#xff36;" 
d="M287 658l190 -512q8 -22 24 -70q10 31 23 70l188 512q25 64 29 102h104q-18 -31 -51 -116l-214 -551q-23 -60 -31 -93h-97q-5 26 -32 93l-214 551q-30 80 -51 116h103q8 -42 29 -102z" />
    <glyph glyph-name="uniFF37" unicode="&#xff37;" 
d="M758 0h-77q-5 33 -25 96l-127 427q-16 51 -29 115q-21 -87 -29 -115l-127 -427q-21 -74 -24 -96h-77q-3 19 -26 99l-154 548q-22 75 -40 113h100q3 -45 19 -104l114 -434q12 -47 26 -113q13 58 29 114l130 439q18 61 22 98h74q5 -34 23 -98l130 -438q4 -14 29 -115
q9 38 10 43l16 72l115 432q17 67 18 104h99q-17 -38 -39 -113l-154 -548q-22 -80 -26 -99z" />
    <glyph glyph-name="uniFF38" unicode="&#xff38;" 
d="M498 348l-165 -246q-36 -56 -60 -102h-114q43 56 89 119l201 283l-177 250q-49 66 -82 108h112q18 -39 56 -95l143 -211l138 211q43 64 55 95h113q-39 -47 -83 -109l-176 -249l200 -281q29 -42 92 -121h-115q-40 69 -62 101z" />
    <glyph glyph-name="uniFF39" unicode="&#xff39;" 
d="M547 0h-96q8 49 8 112v207l-230 354q-29 47 -60 87h109q10 -31 49 -92l173 -278l173 278q39 64 47 92h110q-24 -27 -61 -87l-230 -355v-206q0 -64 8 -112z" />
    <glyph glyph-name="uniFF3A" unicode="&#xff3a;" 
d="M803 77v-84q-55 7 -117 7h-375q-66 0 -114 -3v71q28 26 73 85l379 497q16 19 37 43q-30 -3 -61 -3h-274q-67 0 -116 -7v84q48 -7 116 -7h323q54 0 112 3v-69q-26 -25 -72 -85l-369 -484q-15 -19 -48 -57q34 2 77 2h312q65 0 117 7z" />
    <glyph glyph-name="uniFF41" unicode="&#xff41;" 
d="M641 0v71q-50 -45 -92 -61q-52 -20 -104 -20q-83 0 -130 40.5t-47 111.5q0 60 36.5 102.5t106.5 61.5q77 22 230 26v58q0 103 -126 103q-82 0 -124 -43q-18 -20 -31 -58l-78 17q24 61 56 89q62 57 176 57q200 0 200 -164v-281q0 -57 8 -110h-81zM641 208v65
q-162 -4 -221 -29q-76 -31 -76 -102q0 -41 28.5 -65.5t77.5 -24.5q43 0 87 19t73 51q31 34 31 86z" />
    <glyph glyph-name="uniFF42" unicode="&#xff42;" 
d="M328 0h-80q7 53 7 115v532q0 58 -7 113h88q-7 -52 -7 -114v-135q0 -36 -4 -71q70 110 206 110q115 0 180.5 -73.5t65.5 -204.5q0 -132 -66.5 -207t-183.5 -75q-90 0 -155 54q-23 18 -47 52q3 -28 3 -40v-56zM700 273q0 101 -46 157t-129 56q-88 0 -142 -59t-54 -155
q0 -97 53.5 -157t139.5 -60q84 0 131 57.5t47 160.5z" />
    <glyph glyph-name="uniFF43" unicode="&#xff43;" 
d="M738 397l-73 -23q-43 115 -151 115q-82 0 -131 -59.5t-49 -160.5q0 -99 50 -157.5t134 -58.5q89 0 130 64q13 18 22 51l75 -20q-19 -48 -41 -77q-67 -84 -189 -84q-118 0 -188 76t-70 204q0 130 69 208t184 78q127 0 193 -92q19 -26 35 -64z" />
    <glyph glyph-name="uniFF44" unicode="&#xff44;" 
d="M671 0v49q0 23 3 49q-70 -108 -203 -108q-116 0 -182 75t-66 205q0 128 66.5 204t179.5 76q137 0 205 -106l-1 15q-3 21 -3 53v134q0 61 -7 114h88q-7 -56 -7 -113v-532q0 -60 7 -115h-80zM477 485q-82 0 -128.5 -56.5t-46.5 -156.5q0 -104 41 -156q48 -60 134 -60
q88 0 140 59t52 158q0 105 -56 159q-55 53 -136 53z" />
    <glyph glyph-name="uniFF45" unicode="&#xff45;" 
d="M749 258h-421q4 -92 40 -140q49 -68 141 -68q122 0 165 116l70 -27q-23 -51 -55 -83q-72 -70 -181 -70q-118 0 -187 76.5t-69 206.5q0 128 68 205.5t180 77.5q97 0 162 -58.5t80 -158.5zM331 321h338q-9 80 -53 123q-47 45 -118 45q-95 0 -142 -87q-17 -30 -25 -81z" />
    <glyph glyph-name="uniFF46" unicode="&#xff46;" 
d="M435 475h-41q-44 0 -91 -6v76q41 -6 91 -6h41v59q0 83 31 122q38 49 126 49q55 0 106 -20l-21 -67q-39 23 -83 23q-48 0 -68 -27q-15 -22 -15 -84v-55h50q62 0 106 6v-76q-41 6 -106 6h-50v-363q0 -60 7 -112h-90q7 52 7 113v362z" />
    <glyph glyph-name="uniFF47" unicode="&#xff47;" 
d="M262 -26l65 41q58 -73 165 -73q115 0 163 71q27 41 28 134q-63 -100 -199 -100q-114 0 -180.5 67t-66.5 182q0 114 69 183t182 69q135 0 196 -98q-3 20 -3 37v52h79q-7 -49 -7 -103v-301q0 -127 -56 -186q-65 -68 -206 -68q-90 0 -155 35q-32 17 -74 58zM315 296
q0 -86 46.5 -136t126.5 -50q85 0 137.5 53t52.5 138q0 84 -50 134.5t-134 50.5q-83 0 -131 -51t-48 -139z" />
    <glyph glyph-name="uniFF48" unicode="&#xff48;" 
d="M351 0h-89q7 50 7 113v534q0 61 -7 113h89q-8 -49 -8 -114v-169q0 -24 -3 -50q27 45 55 68q63 54 150 54q88 0 137.5 -49t49.5 -137v-251q0 -60 7 -112h-90q7 46 7 113v236q0 65 -31 99.5t-90 34.5q-83 0 -141 -73q-38 -49 -50 -105v-192q0 -58 7 -113z" />
    <glyph glyph-name="uniFF49" unicode="&#xff49;" 
d="M452 760h97v-89h-97v89zM455 539h90q-7 -49 -7 -113v-313q0 -58 7 -113h-90q7 60 7 113v313q0 64 -7 113z" />
    <glyph glyph-name="uniFF4A" unicode="&#xff4a;" 
d="M480 760h97v-90h-97v90zM483 539h90q-7 -49 -7 -113v-393q0 -80 -35.5 -116.5t-113.5 -36.5q-48 0 -81.5 16.5t-67.5 56.5l69 45q20 -29 38.5 -40.5t45.5 -11.5q37 0 54 21q15 20 15 72v387q0 64 -7 113z" />
    <glyph glyph-name="uniFF4B" unicode="&#xff4b;" 
d="M284 760h89q-7 -50 -7 -113v-362l181 175q50 48 71 79h119q-14 -13 -41 -37q-20 -18 -36 -34l-16 -16l-139 -129l169 -218q64 -82 87 -105h-114q-9 19 -18 32.5t-45 62.5l-133 182l-85 -81v-84q0 -63 7 -112h-89q7 50 7 113v534q0 63 -7 113z" />
    <glyph glyph-name="uniFF4C" unicode="&#xff4c;" 
d="M455 760h90q-7 -50 -7 -113v-535q0 -56 7 -112h-90q7 50 7 112v536q0 62 -7 112z" />
    <glyph glyph-name="uniFF4D" unicode="&#xff4d;" 
d="M193 0h-88q7 50 7 113v313q0 63 -7 113h81v-55q0 -2 -0.5 -6.5t-1 -13t-0.5 -16.5q12 23 38 50q52 52 141 52q84 0 129 -51q18 -19 31 -58q35 58 78.5 83.5t106.5 25.5q100 0 146 -61q34 -45 34 -130v-247q0 -63 7 -112h-90q7 43 7 113v236q0 71 -27.5 103.5t-87.5 32.5
q-80 0 -126 -73q-33 -50 -33 -103v-197q0 -64 7 -112h-90q7 50 7 113v236q0 66 -29 101t-83 35q-82 0 -131 -76q-13 -20 -23 -50t-10 -50v-196q0 -57 7 -113z" />
    <glyph glyph-name="uniFF4E" unicode="&#xff4e;" 
d="M352 0h-90q8 51 8 113v313q0 60 -8 113h83v-68q0 -20 -3 -43q69 121 202 121q111 0 160 -75q28 -43 28 -115v-247q0 -66 7 -112h-90q7 55 7 113v233q0 67 -31.5 102.5t-90.5 35.5q-82 0 -143 -79q-35 -46 -46 -99v-193q0 -58 7 -113z" />
    <glyph glyph-name="uniFF4F" unicode="&#xff4f;" 
d="M501 -13q-123 0 -195.5 76t-72.5 206t72.5 206.5t194.5 76.5t194 -76.5t72 -205.5q0 -128 -72 -205.5t-193 -77.5zM502 489q-89 0 -140.5 -58.5t-51.5 -159.5q0 -102 51 -160.5t139 -58.5t138.5 58.5t50.5 159.5t-50.5 160t-136.5 59z" />
    <glyph glyph-name="uniFF50" unicode="&#xff50;" 
d="M344 539v-52q0 -17 -3 -40q65 102 206 102q114 0 180 -68.5t66 -187.5t-66.5 -188.5t-180.5 -69.5q-138 0 -205 100q4 -43 4 -66v-84q0 -56 7 -104h-88q7 50 7 103v449q0 58 -7 106h80zM716 293q0 90 -47 141.5t-129 51.5q-85 0 -139 -53.5t-54 -138.5q0 -89 52 -142.5
t140 -53.5q82 0 129.5 52.5t47.5 142.5z" />
    <glyph glyph-name="uniFF51" unicode="&#xff51;" 
d="M672 539h80q-7 -50 -7 -106v-449q0 -53 7 -103h-88q7 49 7 104v85q0 26 4 65q-70 -100 -205 -100q-113 0 -180 69.5t-67 186.5q0 119 67 188.5t181 69.5q136 0 204 -102q-3 21 -3 38v54zM300 293q0 -89 47.5 -141.5t129.5 -52.5q87 0 139.5 54t52.5 144q0 84 -53 136.5
t-138 52.5q-82 0 -130 -52t-48 -141z" />
    <glyph glyph-name="uniFF52" unicode="&#xff52;" 
d="M702 539l-22 -77q-48 15 -81 15q-77 0 -123 -61q-32 -41 -37 -100v-204q0 -57 7 -112h-90q7 64 7 113v313q0 63 -7 113h83v-57q0 -23 -1 -30q25 41 55 61q53 35 120 35q35 0 89 -9z" />
    <glyph glyph-name="uniFF53" unicode="&#xff53;" 
d="M274 146l82 14q9 -50 35 -73q38 -35 116 -35q65 0 103.5 26t38.5 70q0 43 -31 62q-29 18 -118 36q-104 22 -148 52q-54 37 -54 105q0 56 43 97q54 52 156 52q103 0 157 -48q36 -30 53 -91l-79 -13q-8 36 -25 53q-35 38 -104 38q-55 0 -90 -25t-35 -65q0 -36 34 -55
q30 -17 111 -34q120 -27 159 -57q48 -39 48 -104q0 -75 -59.5 -118.5t-162.5 -43.5q-141 0 -198 78q-19 27 -32 79z" />
    <glyph glyph-name="uniFF54" unicode="&#xff54;" 
d="M438 687h90q-7 -45 -7 -110v-38h48q60 0 102 6v-76q-38 6 -102 6h-48v-348q0 -40 13 -53q17 -17 49 -17q36 0 79 26l22 -70q-55 -23 -113 -23q-67 0 -98 31q-28 28 -28 96v358h-40q-41 0 -90 -6v76q34 -6 90 -6h40v38q0 65 -7 110z" />
    <glyph glyph-name="uniFF55" unicode="&#xff55;" 
d="M655 0v65q0 18 3 44q-72 -120 -202 -120q-111 0 -160 75q-28 45 -28 116v247q0 67 -7 112h90q-7 -49 -7 -113v-233q0 -67 31.5 -103t89.5 -36q85 0 144 79q34 45 46 100v193q0 64 -7 113h89q-7 -49 -7 -113v-313q0 -60 8 -113h-83z" />
    <glyph glyph-name="uniFF56" unicode="&#xff56;" 
d="M239 539h94q8 -42 31 -98l114 -294q11 -30 22 -65q11 36 23 64l114 295q23 56 30 98h94q-11 -21 -49 -110l-140 -337q-26 -64 -32 -92h-79q-6 27 -33 92l-139 337q-24 55 -50 110z" />
    <glyph glyph-name="uniFF57" unicode="&#xff57;" 
d="M706 0h-69q-6 31 -20 75l-98 291q-1 2 -3 9t-6 23.5t-8 30.5q-10 -35 -19 -65l-97 -289q-16 -46 -21 -75h-70q-8 33 -22 76l-107 345q-19 58 -40 118h92q3 -46 23 -109l73 -249q11 -36 18 -73q11 41 21 72l95 283q17 45 20 76h67q5 -32 20 -76l96 -288q1 -3 13 -45
q4 -15 6 -22q15 65 16 68l75 254q19 62 22 109h91q-10 -27 -39 -118l-108 -346q-16 -48 -21 -75z" />
    <glyph glyph-name="uniFF58" unicode="&#xff58;" 
d="M750 0h-99q-16 30 -45 74l-106 153l-111 -162q-16 -22 -39 -65h-99q37 46 65 87l139 192l-129 180q-2 4 -60 80h98q13 -30 39 -67l98 -141l97 141q26 38 39 67h96q-11 -16 -31.5 -43.5t-29.5 -39.5l-126 -177l132 -184q10 -13 72 -95z" />
    <glyph glyph-name="uniFF59" unicode="&#xff59;" 
d="M478 47l-183 382q-43 91 -54 110h99q6 -38 33 -99l144 -313l128 312q28 66 33 100h94q-17 -38 -50 -110l-197 -452q-25 -59 -66 -80q-32 -16 -84 -16q-40 0 -88 13l23 72q44 -20 68 -20q52 0 77 52z" />
    <glyph glyph-name="uniFF5A" unicode="&#xff5a;" 
d="M698 542v-60q-33 -35 -67 -82l-215 -287l-38 -47q49 2 69 2h158q67 0 113 7v-82q-50 7 -113 7h-212q-69 0 -111 -3v66q35 37 68 81l220 294q12 17 30 36q-27 -2 -50 -2h-136q-59 0 -112 -7v81q55 -7 112 -7h178q78 0 106 3z" />
  </font>
</defs>
</svg>
